# xmcd
# 
# Track frame offsets:
#   150
#   20524
#   34850
#   47746
#   64587
#   80405
#   98893
#   112469
#   126837
#   141339
#   158968
#   178186
#   192448
#   205840
#   225123
#   241628
# 
# Disc length: 3412 seconds
# 
# Revision: 3
# Processed by: cddbd v1.5.2PL0 Copyright (c) Steve Scherf et al.
# Submitted via: Synapstar 1.0 
# 
DISCID=db0d5210
DTITLE=Various Artist - SC-8959
DYEAR=2006
DGENRE=Country
TTITLE0=George Strait - The Seashores Of Old Mexico
TTITLE1=Martina McBride - I Still Miss Someone
TTITLE2=Blake Shelton - Nobody But Me
TTITLE3=Josh Turner - Your Man
TTITLE4=Carrie Underwood - Before He Cheats
TTITLE5=Phil Vassar - Last Day Of My Life
TTITLE6=Joe Nichols - Size Matters (Someday)
TTITLE7=Trick Pony - Ain't Wastin' Good Whiskey On You
TTITLE8=Toby Keith - Get Drunk And Be Somebody
TTITLE9=Dierks Bentley - Settle For A Slowdown
TTITLE10=Tracy Lawrence - If I Don't Make It Back
TTITLE11=Jamey Johnson - The Dollar
TTITLE12=Joaquin Phoenix Feat Reese Witherspoon - Jackson
TTITLE13=Sugarland - Just Might (Make Me Believe)
TTITLE14=Big and Rich - Never Mind Me (Duet Version)
TTITLE15=Martina McBride Feat Dolly Parton - I Still Miss Someone (Duet Version)
EXTD=
EXTT0=
EXTT1=
EXTT2=
EXTT3=
EXTT4=
EXTT5=
EXTT6=
EXTT7=
EXTT8=
EXTT9=
EXTT10=
EXTT11=
EXTT12=
EXTT13=
EXTT14=
EXTT15=
PLAYORDER=
